<svg xmlns="http://www.w3.org/2000/svg" xmlns:xlink="http://www.w3.org/1999/xlink" width="64" zoomAndPan="magnify" viewBox="0 0 48 48" height="64" preserveAspectRatio="xMidYMid meet" version="1.0"><defs><filter x="0%" y="0%" width="100%" height="100%" id="72e46a9810"><feColorMatrix values="0 0 0 0 1 0 0 0 0 1 0 0 0 0 1 0 0 0 1 0" color-interpolation-filters="sRGB"/></filter><clipPath id="5e26d6af54"><path d="M 18.441406 14.105469 L 29.460938 14.105469 L 29.460938 30 L 18.441406 30 Z M 18.441406 14.105469 " clip-rule="nonzero"/></clipPath><clipPath id="184e469551"><path d="M 21 31 L 27 31 L 27 33.207031 L 21 33.207031 Z M 21 31 " clip-rule="nonzero"/></clipPath><mask id="eab932d29f"><g filter="url(#72e46a9810)"><rect x="-4.8" width="57.6" fill="#000000" y="-4.8" height="57.6" fill-opacity="0.15"/></g></mask><clipPath id="7047a66ade"><path d="M 0.648438 0.738281 L 5.351562 0.738281 L 5.351562 2 L 0.648438 2 Z M 0.648438 0.738281 " clip-rule="nonzero"/></clipPath><clipPath id="98e4b40da5"><rect x="0" width="6" y="0" height="3"/></clipPath><clipPath id="bb53c2b57f"><path d="M 19.886719 15.871094 L 27.527344 15.871094 L 27.527344 23.511719 L 19.886719 23.511719 Z M 19.886719 15.871094 " clip-rule="nonzero"/></clipPath><clipPath id="0d04393666"><path d="M 23.707031 15.871094 C 21.597656 15.871094 19.886719 17.578125 19.886719 19.691406 C 19.886719 21.800781 21.597656 23.511719 23.707031 23.511719 C 25.816406 23.511719 27.527344 21.800781 27.527344 19.691406 C 27.527344 17.578125 25.816406 15.871094 23.707031 15.871094 Z M 23.707031 15.871094 " clip-rule="nonzero"/></clipPath><clipPath id="f9776d25ba"><path d="M 0.886719 0.871094 L 8.527344 0.871094 L 8.527344 8.511719 L 0.886719 8.511719 Z M 0.886719 0.871094 " clip-rule="nonzero"/></clipPath><clipPath id="57a34aafa8"><path d="M 4.707031 0.871094 C 2.597656 0.871094 0.886719 2.578125 0.886719 4.691406 C 0.886719 6.800781 2.597656 8.511719 4.707031 8.511719 C 6.816406 8.511719 8.527344 6.800781 8.527344 4.691406 C 8.527344 2.578125 6.816406 0.871094 4.707031 0.871094 Z M 4.707031 0.871094 " clip-rule="nonzero"/></clipPath><clipPath id="e341f37ee2"><rect x="0" width="9" y="0" height="9"/></clipPath><clipPath id="eb4c92adba"><path d="M 20.214844 15.871094 L 27.5625 15.871094 L 27.5625 23.214844 L 20.214844 23.214844 Z M 20.214844 15.871094 " clip-rule="nonzero"/></clipPath></defs><g clip-path="url(#5e26d6af54)"><path fill="#ff66c4" d="M 23.996094 14.121094 C 20.925781 14.121094 18.4375 16.605469 18.4375 19.675781 C 18.4375 22.746094 23.996094 29.421875 23.996094 29.421875 C 23.996094 29.421875 29.550781 22.746094 29.550781 19.675781 C 29.550781 16.605469 27.066406 14.121094 23.996094 14.121094 Z M 23.996094 23.035156 C 22.140625 23.035156 20.636719 21.53125 20.636719 19.675781 C 20.636719 17.820312 22.140625 16.316406 23.996094 16.316406 C 25.851562 16.316406 27.355469 17.820312 27.355469 19.675781 C 27.355469 21.53125 25.851562 23.035156 23.996094 23.035156 Z M 23.996094 23.035156 " fill-opacity="1" fill-rule="nonzero"/></g><g clip-path="url(#184e469551)"><g mask="url(#eab932d29f)"><g transform="matrix(1, 0, 0, 1, 21, 31)"><g clip-path="url(#98e4b40da5)"><g clip-path="url(#7047a66ade)"><path fill="#231f20" d="M 5.144531 1.34375 C 5.144531 1.417969 5.089844 1.488281 4.980469 1.554688 C 4.871094 1.625 4.714844 1.683594 4.515625 1.738281 C 4.3125 1.789062 4.082031 1.828125 3.816406 1.855469 C 3.554688 1.886719 3.28125 1.898438 2.996094 1.898438 C 2.710938 1.898438 2.4375 1.886719 2.171875 1.855469 C 1.910156 1.828125 1.679688 1.789062 1.476562 1.738281 C 1.273438 1.683594 1.121094 1.625 1.011719 1.554688 C 0.902344 1.488281 0.847656 1.417969 0.847656 1.34375 C 0.847656 1.269531 0.902344 1.199219 1.011719 1.132812 C 1.121094 1.0625 1.273438 1.003906 1.476562 0.953125 C 1.679688 0.898438 1.910156 0.859375 2.171875 0.832031 C 2.4375 0.804688 2.710938 0.789062 2.996094 0.789062 C 3.28125 0.789062 3.554688 0.804688 3.816406 0.832031 C 4.082031 0.859375 4.3125 0.898438 4.515625 0.953125 C 4.714844 1.003906 4.871094 1.0625 4.980469 1.132812 C 5.089844 1.199219 5.144531 1.269531 5.144531 1.34375 Z M 5.144531 1.34375 " fill-opacity="1" fill-rule="nonzero"/></g></g></g></g></g><path fill="#ff66c4" d="M 25.484375 19.820312 C 25.484375 20.015625 25.445312 20.207031 25.371094 20.390625 C 25.296875 20.570312 25.1875 20.734375 25.046875 20.871094 C 24.910156 21.011719 24.75 21.121094 24.566406 21.195312 C 24.382812 21.269531 24.195312 21.308594 23.996094 21.308594 C 23.796875 21.308594 23.609375 21.269531 23.425781 21.195312 C 23.242188 21.121094 23.082031 21.011719 22.941406 20.871094 C 22.804688 20.734375 22.695312 20.570312 22.621094 20.390625 C 22.546875 20.207031 22.507812 20.015625 22.507812 19.820312 C 22.507812 19.621094 22.546875 19.433594 22.621094 19.25 C 22.695312 19.066406 22.804688 18.90625 22.941406 18.765625 C 23.082031 18.628906 23.242188 18.519531 23.425781 18.445312 C 23.609375 18.367188 23.796875 18.332031 23.996094 18.332031 C 24.195312 18.332031 24.382812 18.367188 24.566406 18.445312 C 24.75 18.519531 24.910156 18.628906 25.046875 18.765625 C 25.1875 18.90625 25.296875 19.066406 25.371094 19.25 C 25.445312 19.433594 25.484375 19.621094 25.484375 19.820312 Z M 25.484375 19.820312 " fill-opacity="1" fill-rule="nonzero"/><g clip-path="url(#bb53c2b57f)"><g clip-path="url(#0d04393666)"><g transform="matrix(1, 0, 0, 1, 19, 15)"><g clip-path="url(#e341f37ee2)"><g clip-path="url(#f9776d25ba)"><g clip-path="url(#57a34aafa8)"><path fill="#ff66c4" d="M 0.886719 0.871094 L 8.527344 0.871094 L 8.527344 8.511719 L 0.886719 8.511719 Z M 0.886719 0.871094 " fill-opacity="1" fill-rule="nonzero"/></g></g></g></g></g></g><g clip-path="url(#eb4c92adba)"><path fill="#000000" d="M 23.890625 15.871094 C 23.402344 15.871094 22.933594 15.960938 22.484375 16.148438 C 22.035156 16.335938 21.636719 16.601562 21.292969 16.945312 C 20.949219 17.289062 20.683594 17.6875 20.496094 18.136719 C 20.308594 18.585938 20.214844 19.054688 20.214844 19.542969 C 20.214844 20.03125 20.308594 20.5 20.496094 20.949219 C 20.683594 21.398438 20.949219 21.796875 21.292969 22.140625 C 21.636719 22.484375 22.035156 22.75 22.484375 22.9375 C 22.933594 23.125 23.402344 23.214844 23.890625 23.214844 C 24.375 23.214844 24.84375 23.125 25.296875 22.9375 C 25.746094 22.75 26.144531 22.484375 26.488281 22.140625 C 26.832031 21.796875 27.097656 21.398438 27.285156 20.949219 C 27.46875 20.5 27.5625 20.03125 27.5625 19.542969 C 27.5625 19.054688 27.46875 18.585938 27.28125 18.136719 C 27.097656 17.6875 26.832031 17.289062 26.484375 16.945312 C 26.140625 16.601562 25.746094 16.335938 25.292969 16.148438 C 24.84375 15.964844 24.375 15.871094 23.890625 15.871094 Z M 25.128906 20.78125 C 25.0625 20.847656 24.984375 20.878906 24.890625 20.878906 C 24.800781 20.878906 24.722656 20.847656 24.65625 20.78125 L 23.652344 19.777344 C 23.589844 19.714844 23.554688 19.636719 23.554688 19.542969 L 23.554688 17.539062 C 23.554688 17.445312 23.589844 17.367188 23.652344 17.304688 C 23.71875 17.238281 23.796875 17.207031 23.890625 17.207031 C 23.980469 17.207031 24.0625 17.238281 24.125 17.304688 C 24.191406 17.367188 24.222656 17.445312 24.222656 17.539062 L 24.222656 19.40625 L 25.128906 20.308594 C 25.191406 20.375 25.226562 20.453125 25.226562 20.542969 C 25.226562 20.636719 25.191406 20.714844 25.128906 20.78125 Z M 25.128906 20.78125 " fill-opacity="1" fill-rule="nonzero"/></g></svg>