<svg xmlns="http://www.w3.org/2000/svg" xmlns:xlink="http://www.w3.org/1999/xlink" width="64" zoomAndPan="magnify" viewBox="0 0 48 48" height="64" preserveAspectRatio="xMidYMid meet" version="1.0"><defs><filter x="0%" y="0%" width="100%" height="100%" id="a9aa972b33"><feColorMatrix values="0 0 0 0 1 0 0 0 0 1 0 0 0 0 1 0 0 0 1 0" color-interpolation-filters="sRGB"/></filter><clipPath id="e567471c4d"><path d="M 18.441406 14.105469 L 29.460938 14.105469 L 29.460938 30 L 18.441406 30 Z M 18.441406 14.105469 " clip-rule="nonzero"/></clipPath><clipPath id="fd7e8249d6"><path d="M 21 31 L 27 31 L 27 33.207031 L 21 33.207031 Z M 21 31 " clip-rule="nonzero"/></clipPath><mask id="826b8e86e4"><g filter="url(#a9aa972b33)"><rect x="-4.8" width="57.6" fill="#000000" y="-4.8" height="57.6" fill-opacity="0.15"/></g></mask><clipPath id="ae7ebad6e5"><path d="M 0.648438 0.738281 L 5.351562 0.738281 L 5.351562 2 L 0.648438 2 Z M 0.648438 0.738281 " clip-rule="nonzero"/></clipPath><clipPath id="70571cf3e5"><rect x="0" width="6" y="0" height="3"/></clipPath><clipPath id="82a8e3a118"><path d="M 19.886719 15.871094 L 27.527344 15.871094 L 27.527344 23.511719 L 19.886719 23.511719 Z M 19.886719 15.871094 " clip-rule="nonzero"/></clipPath><clipPath id="cd63ed57b6"><path d="M 23.707031 15.871094 C 21.597656 15.871094 19.886719 17.578125 19.886719 19.691406 C 19.886719 21.800781 21.597656 23.511719 23.707031 23.511719 C 25.816406 23.511719 27.527344 21.800781 27.527344 19.691406 C 27.527344 17.578125 25.816406 15.871094 23.707031 15.871094 Z M 23.707031 15.871094 " clip-rule="nonzero"/></clipPath><clipPath id="a2be6ef34a"><path d="M 0.886719 0.871094 L 8.527344 0.871094 L 8.527344 8.511719 L 0.886719 8.511719 Z M 0.886719 0.871094 " clip-rule="nonzero"/></clipPath><clipPath id="72174f9c3d"><path d="M 4.707031 0.871094 C 2.597656 0.871094 0.886719 2.578125 0.886719 4.691406 C 0.886719 6.800781 2.597656 8.511719 4.707031 8.511719 C 6.816406 8.511719 8.527344 6.800781 8.527344 4.691406 C 8.527344 2.578125 6.816406 0.871094 4.707031 0.871094 Z M 4.707031 0.871094 " clip-rule="nonzero"/></clipPath><clipPath id="7319c33710"><rect x="0" width="9" y="0" height="9"/></clipPath><clipPath id="35c1d4be5b"><path d="M 20.214844 15.941406 L 27.5625 15.941406 L 27.5625 23.289062 L 20.214844 23.289062 Z M 20.214844 15.941406 " clip-rule="nonzero"/></clipPath></defs><g clip-path="url(#e567471c4d)"><path fill="#00bf63" d="M 23.996094 14.121094 C 20.925781 14.121094 18.4375 16.605469 18.4375 19.675781 C 18.4375 22.746094 23.996094 29.421875 23.996094 29.421875 C 23.996094 29.421875 29.550781 22.746094 29.550781 19.675781 C 29.550781 16.605469 27.066406 14.121094 23.996094 14.121094 Z M 23.996094 23.035156 C 22.140625 23.035156 20.636719 21.53125 20.636719 19.675781 C 20.636719 17.820312 22.140625 16.316406 23.996094 16.316406 C 25.851562 16.316406 27.355469 17.820312 27.355469 19.675781 C 27.355469 21.53125 25.851562 23.035156 23.996094 23.035156 Z M 23.996094 23.035156 " fill-opacity="1" fill-rule="nonzero"/></g><g clip-path="url(#fd7e8249d6)"><g mask="url(#826b8e86e4)"><g transform="matrix(1, 0, 0, 1, 21, 31)"><g clip-path="url(#70571cf3e5)"><g clip-path="url(#ae7ebad6e5)"><path fill="#231f20" d="M 5.144531 1.34375 C 5.144531 1.417969 5.089844 1.488281 4.980469 1.554688 C 4.871094 1.625 4.714844 1.683594 4.515625 1.738281 C 4.3125 1.789062 4.082031 1.828125 3.816406 1.855469 C 3.554688 1.886719 3.28125 1.898438 2.996094 1.898438 C 2.710938 1.898438 2.4375 1.886719 2.171875 1.855469 C 1.910156 1.828125 1.679688 1.789062 1.476562 1.738281 C 1.273438 1.683594 1.121094 1.625 1.011719 1.554688 C 0.902344 1.488281 0.847656 1.417969 0.847656 1.34375 C 0.847656 1.269531 0.902344 1.199219 1.011719 1.132812 C 1.121094 1.0625 1.273438 1.003906 1.476562 0.953125 C 1.679688 0.898438 1.910156 0.859375 2.171875 0.832031 C 2.4375 0.804688 2.710938 0.789062 2.996094 0.789062 C 3.28125 0.789062 3.554688 0.804688 3.816406 0.832031 C 4.082031 0.859375 4.3125 0.898438 4.515625 0.953125 C 4.714844 1.003906 4.871094 1.0625 4.980469 1.132812 C 5.089844 1.199219 5.144531 1.269531 5.144531 1.34375 Z M 5.144531 1.34375 " fill-opacity="1" fill-rule="nonzero"/></g></g></g></g></g><path fill="#00bf63" d="M 25.484375 19.820312 C 25.484375 20.015625 25.445312 20.207031 25.371094 20.390625 C 25.296875 20.570312 25.1875 20.734375 25.046875 20.871094 C 24.910156 21.011719 24.75 21.121094 24.566406 21.195312 C 24.382812 21.269531 24.195312 21.308594 23.996094 21.308594 C 23.796875 21.308594 23.609375 21.269531 23.425781 21.195312 C 23.242188 21.121094 23.082031 21.011719 22.941406 20.871094 C 22.804688 20.734375 22.695312 20.570312 22.621094 20.390625 C 22.546875 20.207031 22.507812 20.015625 22.507812 19.820312 C 22.507812 19.621094 22.546875 19.433594 22.621094 19.25 C 22.695312 19.066406 22.804688 18.90625 22.941406 18.765625 C 23.082031 18.628906 23.242188 18.519531 23.425781 18.445312 C 23.609375 18.367188 23.796875 18.332031 23.996094 18.332031 C 24.195312 18.332031 24.382812 18.367188 24.566406 18.445312 C 24.75 18.519531 24.910156 18.628906 25.046875 18.765625 C 25.1875 18.90625 25.296875 19.066406 25.371094 19.25 C 25.445312 19.433594 25.484375 19.621094 25.484375 19.820312 Z M 25.484375 19.820312 " fill-opacity="1" fill-rule="nonzero"/><g clip-path="url(#82a8e3a118)"><g clip-path="url(#cd63ed57b6)"><g transform="matrix(1, 0, 0, 1, 19, 15)"><g clip-path="url(#7319c33710)"><g clip-path="url(#a2be6ef34a)"><g clip-path="url(#72174f9c3d)"><path fill="#00bf63" d="M 0.886719 0.871094 L 8.527344 0.871094 L 8.527344 8.511719 L 0.886719 8.511719 Z M 0.886719 0.871094 " fill-opacity="1" fill-rule="nonzero"/></g></g></g></g></g></g><g clip-path="url(#35c1d4be5b)"><path fill="#000000" d="M 23.890625 15.941406 C 23.402344 15.941406 22.933594 16.035156 22.484375 16.222656 C 22.035156 16.410156 21.636719 16.675781 21.292969 17.019531 C 20.949219 17.363281 20.683594 17.761719 20.496094 18.210938 C 20.308594 18.660156 20.214844 19.128906 20.214844 19.617188 C 20.214844 20.101562 20.308594 20.570312 20.496094 21.023438 C 20.683594 21.472656 20.949219 21.871094 21.292969 22.214844 C 21.636719 22.558594 22.035156 22.824219 22.484375 23.011719 C 22.933594 23.195312 23.402344 23.289062 23.890625 23.289062 C 24.375 23.289062 24.84375 23.195312 25.296875 23.011719 C 25.746094 22.824219 26.144531 22.558594 26.488281 22.214844 C 26.832031 21.871094 27.097656 21.472656 27.285156 21.023438 C 27.46875 20.570312 27.5625 20.101562 27.5625 19.617188 C 27.5625 19.128906 27.46875 18.660156 27.28125 18.210938 C 27.097656 17.761719 26.832031 17.363281 26.484375 17.019531 C 26.140625 16.675781 25.746094 16.410156 25.292969 16.222656 C 24.84375 16.035156 24.375 15.945312 23.890625 15.941406 Z M 25.128906 20.855469 C 25.0625 20.917969 24.984375 20.953125 24.890625 20.953125 C 24.800781 20.953125 24.722656 20.917969 24.65625 20.855469 L 23.652344 19.851562 C 23.589844 19.789062 23.554688 19.707031 23.554688 19.617188 L 23.554688 17.613281 C 23.554688 17.519531 23.589844 17.441406 23.652344 17.375 C 23.71875 17.3125 23.796875 17.277344 23.890625 17.277344 C 23.980469 17.277344 24.0625 17.3125 24.125 17.375 C 24.191406 17.441406 24.222656 17.519531 24.222656 17.613281 L 24.222656 19.476562 L 25.128906 20.382812 C 25.191406 20.449219 25.226562 20.527344 25.226562 20.617188 C 25.226562 20.710938 25.191406 20.789062 25.128906 20.855469 Z M 25.128906 20.855469 " fill-opacity="1" fill-rule="nonzero"/></g></svg>